<?xml version="1.0" encoding="UTF-8" standalone="no"?>
<svg
   width="100%"
   height="100%"
   viewBox="0 0 1226 446"
   version="1.1"
   xml:space="preserve"
   style="fill-rule:evenodd;clip-rule:evenodd;stroke-linejoin:round;stroke-miterlimit:2;"
   id="svg35"
   sodipodi:docname="AceLing Logo.svg"
   inkscape:version="1.2.2 (732a01da63, 2022-12-09)"
   xmlns:inkscape="http://www.inkscape.org/namespaces/inkscape"
   xmlns:sodipodi="http://sodipodi.sourceforge.net/DTD/sodipodi-0.dtd"
   xmlns="http://www.w3.org/2000/svg"
   xmlns:svg="http://www.w3.org/2000/svg"><defs
   id="defs39" /><sodipodi:namedview
   id="namedview37"
   pagecolor="#505050"
   bordercolor="#ffffff"
   borderopacity="1"
   inkscape:showpageshadow="0"
   inkscape:pageopacity="0"
   inkscape:pagecheckerboard="1"
   inkscape:deskcolor="#505050"
   showgrid="false"
   inkscape:zoom="1.225938"
   inkscape:cx="560.38723"
   inkscape:cy="222.68663"
   inkscape:window-width="1920"
   inkscape:window-height="1009"
   inkscape:window-x="-8"
   inkscape:window-y="-8"
   inkscape:window-maximized="1"
   inkscape:current-layer="svg35" />
    <g
   transform="matrix(0.985177,0,0,0.985177,-26.9045,-407.559)"
   id="g33"
   style="fill-rule:nonzero">
        <g
   transform="matrix(0.491706,0,0,0.491706,333.878,277.338)"
   id="g16"
   style="fill-rule:nonzero">
            <g
   id="g14"
   style="fill-rule:nonzero">
                <g
   transform="matrix(1,0,0,1,435.869,844.967)"
   id="g4"
   style="fill-rule:nonzero">
                    <text
   x="0px"
   y="0px"
   style="font-family:'Montserrat-SemiBold', 'Montserrat';font-weight:600;font-size:387.754px;fill:rgb(64, 64, 64);fill-rule:nonzero"
   id="text2">A</text>
                </g>
                <g
   transform="matrix(1,0,0,1,716.603,844.967)"
   id="g12"
   style="fill-rule:nonzero">
                    <text
   x="0px"
   y="0px"
   style="font-family:'Montserrat-SemiBold', 'Montserrat';font-weight:600;font-size:387.754px;fill:rgb(64, 64, 64);fill-rule:nonzero"
   id="text10">c<tspan
   x="222.183px "
   y="0px "
   id="tspan6"
   style="fill-rule:nonzero">e</tspan>lin<tspan
   x="953.487px "
   y="0px "
   id="tspan8"
   style="fill-rule:nonzero">g</tspan></text>
                </g>
            </g>
        </g>
        <g
   transform="matrix(0.531406,0,0,0.531406,-98.5053,311.682)"
   id="g31"
   style="fill-rule:nonzero">
            <path
   d="M1075.87,408.052C1075.87,292.273 981.871,198.275 866.091,198.275L446.536,198.275C330.756,198.275 236.758,292.273 236.758,408.052L236.758,827.608C236.758,943.387 330.756,1037.39 446.536,1037.39L866.091,1037.39C981.871,1037.39 1075.87,943.387 1075.87,827.608L1075.87,408.052Z"
   style="fill:rgb(0, 143, 255);fill-rule:nonzero"
   id="path18" />
            <g
   id="g29"
   style="fill-rule:nonzero">
                <clipPath
   id="_clip1">
                    <path
   d="M1075.87,408.052C1075.87,292.273 981.871,198.275 866.091,198.275L446.536,198.275C330.756,198.275 236.758,292.273 236.758,408.052L236.758,827.608C236.758,943.387 330.756,1037.39 446.536,1037.39L866.091,1037.39C981.871,1037.39 1075.87,943.387 1075.87,827.608L1075.87,408.052Z"
   id="path20" />
                </clipPath>
                <g
   clip-path="url(#_clip1)"
   id="g27"
   style="fill-rule:nonzero">
                    <g
   transform="matrix(1.8818,0,0,1.8818,177.11,-586.523)"
   id="g25"
   style="fill-rule:nonzero">
                        <path
   d="M189.829,727.118L189.828,727.118C189.828,727.118 173.768,753.334 167.224,764.016C166.93,764.495 167.006,765.115 167.407,765.509C167.808,765.904 168.429,765.97 168.904,765.668C182.819,756.835 224.924,730.107 224.924,730.107L294.002,730.107C354.318,730.107 403.288,681.138 403.288,620.822C403.288,560.505 354.318,511.536 294.002,511.536L215.301,511.536C154.985,511.536 106.015,560.505 106.015,620.822C106.015,672.368 141.78,715.627 189.829,727.118ZM345.571,646.444C344.776,654.25 343.118,659.76 340.597,662.972C338.075,666.185 333.757,667.791 327.643,667.791L297.436,667.791C293.74,667.791 290.864,666.686 288.809,664.475C286.753,662.264 285.726,659.259 285.726,655.459L285.726,622.765L277.591,625.977L275.674,615.355L285.726,611.417L285.726,587.428L296.451,587.428L296.451,606.858L306.348,602.609L306.348,573.852L317.073,573.852L317.073,598.049L339.664,588.412L339.664,592.868C339.664,600.882 339.422,609.284 338.939,618.075C338.455,626.867 337.902,632.212 337.281,634.112C336.659,636.012 335.528,637.566 333.887,638.775C332.246,639.984 329.785,640.589 326.503,640.589C325.156,640.589 323.377,640.416 321.167,640.07L318.317,628.516C320.182,628.792 322.099,628.93 324.068,628.93C325.243,628.93 326.115,628.576 326.685,627.868C327.255,627.16 327.686,624.388 327.98,619.552C328.274,614.716 328.42,609.569 328.42,604.112L317.073,609.086L317.073,649.293L306.348,649.293L306.348,613.749L296.451,618.101L296.451,652.299C296.451,655.407 297.971,656.962 301.011,656.962L325.623,656.962C328.351,656.962 330.372,656.029 331.685,654.164C332.997,652.299 333.809,648.343 334.12,642.298L345.571,646.444ZM218.486,646.328L225.32,662.143L238.597,662.143L207.748,593.805L195.251,593.805L164.499,662.143L177.581,662.143L184.317,646.328L218.486,646.328ZM282.669,645.252C274.379,648.879 263.878,653.128 251.166,657.998L246.917,647.583L261.114,642.402L261.114,609.811L249.145,609.811L249.145,598.878L261.114,598.878L261.114,573.852L271.943,573.852L271.943,598.878L281.84,598.878L281.84,609.811L271.943,609.811L271.943,638.257C275.778,636.806 279.353,635.39 282.669,634.008L282.669,645.252ZM214.288,636.37L188.613,636.37L201.402,606.497L214.288,636.37Z"
   style="fill:rgb(242, 242, 242);fill-rule:nonzero"
   id="path23" />
                    </g>
                </g>
            </g>
        </g>
    </g>
</svg>
